<svg width="180" height="181" viewBox="0 0 180 181" fill="none" xmlns="http://www.w3.org/2000/svg">
<path d="M19.3134 96.4435L5.90307 110.267C3.31027 112.94 3.37479 117.21 6.048 119.803C7.35809 121.074 9.05093 121.706 10.7428 121.706C12.5028 121.706 14.2615 121.021 15.5835 119.658L28.9938 105.834C31.5866 103.161 31.522 98.892 28.8488 96.2989C26.1756 93.7054 21.9065 93.7702 19.3134 96.4435Z" fill="#FFC322" stroke="#FFC322" stroke-width="0.3"/>
<path d="M66.2533 100.8C62.5294 100.8 59.5099 103.819 59.5099 107.544V166.885C59.5099 170.609 62.5291 173.629 66.2533 173.629H66.2536C69.9775 173.629 72.9969 170.609 72.9969 166.885L72.9963 107.543C72.9963 103.819 69.9775 100.8 66.2533 100.8Z" fill="#1E1F24" stroke="#1E1F24" stroke-width="0.3"/>
<path d="M156.732 1H136.502C132.777 1 129.758 4.01914 129.758 7.74333C129.758 11.4675 132.777 14.4867 136.502 14.4867H154.275L104.76 63.9912C103.431 65.3199 101.693 66.0756 99.9736 66.0756C99.9375 66.0756 99.9006 66.0752 99.8645 66.0746C98.2088 66.0435 96.5166 65.2844 95.2235 63.9909L87.2954 56.0628C83.4141 52.1815 78.2616 49.9316 73.1581 49.8897C73.1084 49.8894 73.0591 49.8894 73.0098 49.8894C67.7275 49.8894 62.4527 52.1984 58.5107 56.2401L44.0598 70.7562C41.4322 73.3956 41.4417 77.665 44.0811 80.2926C45.3966 81.6024 47.1175 82.2571 48.8384 82.2571C50.5691 82.2571 52.2997 81.5946 53.6173 80.271L68.0944 65.729C68.1143 65.7094 68.1336 65.6895 68.1532 65.6695C69.5612 64.2192 71.3963 63.3591 73.0476 63.3757C74.6188 63.3885 76.3802 64.2196 77.7596 65.5989L85.6877 73.527C89.4801 77.3198 94.4258 79.4619 99.6138 79.5585C105.009 79.6599 110.364 77.461 114.297 73.5277L163.475 24.3593V41.1228C163.475 44.847 166.494 47.8661 170.218 47.8661C173.942 47.8661 176.962 44.847 176.962 41.1228V21.23C176.962 10.0753 167.887 1 156.732 1Z" fill="#00C5B3" stroke="#00C5B3" stroke-width="0.3"/>
<path d="M23.9099 131.147C20.1769 131.134 17.1436 134.157 17.1436 137.89V166.886C17.1436 170.61 20.1628 173.63 23.8869 173.63H23.8873C27.6115 173.63 30.6306 170.611 30.6306 166.886V137.89C30.6303 134.175 27.6257 131.159 23.9099 131.147Z" fill="#1E1F24" stroke="#1E1F24" stroke-width="0.3"/>
<path d="M156.394 58.6554C152.67 58.6554 149.651 61.6745 149.651 65.3987V166.886C149.651 170.61 152.67 173.629 156.394 173.629H156.395C160.118 173.629 163.138 170.61 163.138 166.886V65.3987C163.138 61.6742 160.119 58.6554 156.394 58.6554Z" fill="#1E1F24" stroke="#1E1F24" stroke-width="0.3"/>
<path d="M110.987 94.3954C107.262 94.3954 104.243 97.4145 104.243 101.139V166.886C104.243 170.61 107.262 173.63 110.987 173.63H110.987C114.711 173.63 117.73 170.61 117.73 166.886V101.139C117.73 97.4145 114.711 94.3954 110.987 94.3954Z" fill="#1E1F24" stroke="#1E1F24" stroke-width="0.3"/>
</svg>
