<svg width="2273" height="1577" xmlns="http://www.w3.org/2000/svg" xmlns:xlink="http://www.w3.org/1999/xlink" overflow="hidden"><defs><clipPath id="clip0"><rect x="1008" y="609" width="2273" height="1577"/></clipPath><clipPath id="clip1"><rect x="1011" y="612" width="2268" height="1570"/></clipPath><clipPath id="clip2"><rect x="1147" y="814" width="2085" height="1119"/></clipPath><clipPath id="clip3"><rect x="1147" y="814" width="2085" height="1119"/></clipPath><clipPath id="clip4"><rect x="1147" y="814" width="2085" height="1119"/></clipPath><clipPath id="clip5"><rect x="1011" y="612" width="2268" height="1570"/></clipPath><clipPath id="clip6"><rect x="1011" y="612" width="2268" height="1570"/></clipPath><clipPath id="clip7"><rect x="1011" y="612" width="2268" height="1570"/></clipPath><clipPath id="clip8"><rect x="1011" y="612" width="2268" height="1570"/></clipPath><clipPath id="clip9"><rect x="1011" y="612" width="2268" height="1570"/></clipPath><clipPath id="clip10"><rect x="1011" y="612" width="2268" height="1570"/></clipPath><clipPath id="clip11"><rect x="1011" y="612" width="2268" height="1570"/></clipPath><clipPath id="clip12"><rect x="1011" y="612" width="2268" height="1570"/></clipPath><clipPath id="clip13"><rect x="1011" y="612" width="2268" height="1570"/></clipPath><clipPath id="clip14"><rect x="1011" y="612" width="2268" height="1570"/></clipPath><clipPath id="clip15"><rect x="1011" y="612" width="2268" height="1570"/></clipPath><clipPath id="clip16"><rect x="1011" y="612" width="2268" height="1570"/></clipPath><clipPath id="clip17"><rect x="1011" y="612" width="2268" height="1570"/></clipPath><clipPath id="clip18"><rect x="1011" y="612" width="2268" height="1570"/></clipPath><clipPath id="clip19"><rect x="1011" y="612" width="2268" height="1570"/></clipPath><clipPath id="clip20"><rect x="1011" y="612" width="2268" height="1570"/></clipPath><clipPath id="clip21"><rect x="1011" y="612" width="2268" height="1570"/></clipPath><clipPath id="clip22"><rect x="1011" y="612" width="2268" height="1570"/></clipPath><clipPath id="clip23"><rect x="1011" y="612" width="2268" height="1570"/></clipPath><clipPath id="clip24"><rect x="1011" y="612" width="2268" height="1570"/></clipPath><clipPath id="clip25"><rect x="1011" y="612" width="2268" height="1570"/></clipPath><clipPath id="clip26"><rect x="1011" y="612" width="2268" height="1570"/></clipPath><clipPath id="clip27"><rect x="1011" y="612" width="2268" height="1570"/></clipPath><clipPath id="clip28"><rect x="1011" y="612" width="2268" height="1570"/></clipPath><clipPath id="clip29"><rect x="1011" y="612" width="2268" height="1570"/></clipPath><clipPath id="clip30"><rect x="1011" y="612" width="2268" height="1570"/></clipPath></defs><g clip-path="url(#clip0)" transform="translate(-1008 -609)"><g clip-path="url(#clip1)"><path d="M1147.5 1929.5 3228.5 1929.5" stroke="#1E1F24" stroke-width="3.4375" stroke-linecap="butt" stroke-linejoin="round" stroke-miterlimit="10" stroke-opacity="1" fill="none" fill-rule="evenodd"/></g><g clip-path="url(#clip2)"><path d="M1251 1450.21C1320.41 1517.18 1389.81 1636.24 1459.22 1651.12 1528.63 1666 1598.04 1576.71 1667.44 1539.5 1736.85 1502.29 1806.26 1455.79 1875.67 1427.88 1945.07 1399.98 2014.48 1344.17 2083.89 1372.07 2153.3 1399.98 2222.7 1651.12 2292.11 1595.31 2361.52 1539.5 2430.93 1093.03 2500.33 1037.22 2569.74 981.412 2639.15 1279.06 2708.56 1260.46 2777.96 1241.85 2847.37 907 2916.78 925.603 2986.19 944.206 3055.59 1223.25 3125 1372.07" stroke="#FEC321" stroke-width="10.3125" stroke-linecap="round" stroke-linejoin="round" stroke-miterlimit="10" stroke-opacity="1" fill="none" fill-rule="nonzero"/></g><g clip-path="url(#clip3)"><path d="M1251 1662.33C1320.41 1587.97 1389.81 1428.1 1459.22 1439.26 1528.63 1450.41 1598.04 1699.51 1667.44 1729.26 1736.85 1759 1806.26 1658.62 1875.67 1617.72 1939.5 1580.11 2020.06 1589.87 2083.89 1483.87 2153.3 1368.62 2222.7 963.359 2292.11 926.18 2361.52 889 2430.93 1186.44 2500.33 1260.8 2569.74 1335.15 2639.15 1316.56 2708.56 1372.33 2777.96 1428.1 2847.37 1632.59 2916.78 1595.41 2986.19 1558.23 3055.59 1297.97 3125 1149.26" stroke="#0FC5B3" stroke-width="10.3125" stroke-linecap="round" stroke-linejoin="round" stroke-miterlimit="10" stroke-opacity="1" fill="none" fill-rule="nonzero"/></g><g clip-path="url(#clip4)"><path d="M1251.5 1450.55 1251.5 1662.55M1459.55 1439.55 1459.55 1650.55M1667.55 1539.55 1667.55 1729.5M1875.56 1427.55 1875.56 1617.55M2083.57 1372.55 2083.57 1483.55M2292.58 925.5 2292.58 1595.55M2500.58 1037.53 2500.58 1260.54M2708.59 1260.54 2708.59 1372.55M2916.6 925.5 2916.6 1595.55M3124.5 1148.54 3124.5 1372.55" stroke="#1E1F24" stroke-width="3.4375" stroke-linecap="butt" stroke-linejoin="round" stroke-miterlimit="10" stroke-opacity="1" fill="none" fill-rule="nonzero"/></g><g clip-path="url(#clip5)"><text fill="#1E1F24" fill-opacity="1" font-family="Calibri,Calibri_MSFontService,sans-serif" font-style="normal" font-variant="normal" font-weight="400" font-stretch="normal" font-size="55" text-anchor="start" direction="ltr" writing-mode="lr-tb" unicode-bidi="normal" text-decoration="none" transform="matrix(1 0 0 1 1068.61 1945)">0</text></g><g clip-path="url(#clip6)"><text fill="#1E1F24" fill-opacity="1" font-family="Calibri,Calibri_MSFontService,sans-serif" font-style="normal" font-variant="normal" font-weight="400" font-stretch="normal" font-size="55" text-anchor="start" direction="ltr" writing-mode="lr-tb" unicode-bidi="normal" text-decoration="none" transform="matrix(1 0 0 1 1068.61 1833)">1</text></g><g clip-path="url(#clip7)"><text fill="#1E1F24" fill-opacity="1" font-family="Calibri,Calibri_MSFontService,sans-serif" font-style="normal" font-variant="normal" font-weight="400" font-stretch="normal" font-size="55" text-anchor="start" direction="ltr" writing-mode="lr-tb" unicode-bidi="normal" text-decoration="none" transform="matrix(1 0 0 1 1068.61 1722)">2</text></g><g clip-path="url(#clip8)"><text fill="#1E1F24" fill-opacity="1" font-family="Calibri,Calibri_MSFontService,sans-serif" font-style="normal" font-variant="normal" font-weight="400" font-stretch="normal" font-size="55" text-anchor="start" direction="ltr" writing-mode="lr-tb" unicode-bidi="normal" text-decoration="none" transform="matrix(1 0 0 1 1068.61 1610)">3</text></g><g clip-path="url(#clip9)"><text fill="#1E1F24" fill-opacity="1" font-family="Calibri,Calibri_MSFontService,sans-serif" font-style="normal" font-variant="normal" font-weight="400" font-stretch="normal" font-size="55" text-anchor="start" direction="ltr" writing-mode="lr-tb" unicode-bidi="normal" text-decoration="none" transform="matrix(1 0 0 1 1068.61 1498)">4</text></g><g clip-path="url(#clip10)"><text fill="#1E1F24" fill-opacity="1" font-family="Calibri,Calibri_MSFontService,sans-serif" font-style="normal" font-variant="normal" font-weight="400" font-stretch="normal" font-size="55" text-anchor="start" direction="ltr" writing-mode="lr-tb" unicode-bidi="normal" text-decoration="none" transform="matrix(1 0 0 1 1068.61 1387)">5</text></g><g clip-path="url(#clip11)"><text fill="#1E1F24" fill-opacity="1" font-family="Calibri,Calibri_MSFontService,sans-serif" font-style="normal" font-variant="normal" font-weight="400" font-stretch="normal" font-size="55" text-anchor="start" direction="ltr" writing-mode="lr-tb" unicode-bidi="normal" text-decoration="none" transform="matrix(1 0 0 1 1068.61 1275)">6</text></g><g clip-path="url(#clip12)"><text fill="#1E1F24" fill-opacity="1" font-family="Calibri,Calibri_MSFontService,sans-serif" font-style="normal" font-variant="normal" font-weight="400" font-stretch="normal" font-size="55" text-anchor="start" direction="ltr" writing-mode="lr-tb" unicode-bidi="normal" text-decoration="none" transform="matrix(1 0 0 1 1068.61 1164)">7</text></g><g clip-path="url(#clip13)"><text fill="#1E1F24" fill-opacity="1" font-family="Calibri,Calibri_MSFontService,sans-serif" font-style="normal" font-variant="normal" font-weight="400" font-stretch="normal" font-size="55" text-anchor="start" direction="ltr" writing-mode="lr-tb" unicode-bidi="normal" text-decoration="none" transform="matrix(1 0 0 1 1068.61 1052)">8</text></g><g clip-path="url(#clip14)"><text fill="#1E1F24" fill-opacity="1" font-family="Calibri,Calibri_MSFontService,sans-serif" font-style="normal" font-variant="normal" font-weight="400" font-stretch="normal" font-size="55" text-anchor="start" direction="ltr" writing-mode="lr-tb" unicode-bidi="normal" text-decoration="none" transform="matrix(1 0 0 1 1068.61 941)">9</text></g><g clip-path="url(#clip15)"><text fill="#1E1F24" fill-opacity="1" font-family="Calibri,Calibri_MSFontService,sans-serif" font-style="normal" font-variant="normal" font-weight="400" font-stretch="normal" font-size="55" text-anchor="start" direction="ltr" writing-mode="lr-tb" unicode-bidi="normal" text-decoration="none" transform="matrix(1 0 0 1 1040.81 829)">10</text></g><g clip-path="url(#clip16)"><text fill="#1E1F24" fill-opacity="1" font-family="Calibri,Calibri_MSFontService,sans-serif" font-style="normal" font-variant="normal" font-weight="400" font-stretch="normal" font-size="55" text-anchor="start" direction="ltr" writing-mode="lr-tb" unicode-bidi="normal" text-decoration="none" transform="matrix(1 0 0 1 1237.48 2017)">1</text></g><g clip-path="url(#clip17)"><text fill="#1E1F24" fill-opacity="1" font-family="Calibri,Calibri_MSFontService,sans-serif" font-style="normal" font-variant="normal" font-weight="400" font-stretch="normal" font-size="55" text-anchor="start" direction="ltr" writing-mode="lr-tb" unicode-bidi="normal" text-decoration="none" transform="matrix(1 0 0 1 1445.65 2017)">2</text></g><g clip-path="url(#clip18)"><text fill="#1E1F24" fill-opacity="1" font-family="Calibri,Calibri_MSFontService,sans-serif" font-style="normal" font-variant="normal" font-weight="400" font-stretch="normal" font-size="55" text-anchor="start" direction="ltr" writing-mode="lr-tb" unicode-bidi="normal" text-decoration="none" transform="matrix(1 0 0 1 1653.81 2017)">3</text></g><g clip-path="url(#clip19)"><text fill="#1E1F24" fill-opacity="1" font-family="Calibri,Calibri_MSFontService,sans-serif" font-style="normal" font-variant="normal" font-weight="400" font-stretch="normal" font-size="55" text-anchor="start" direction="ltr" writing-mode="lr-tb" unicode-bidi="normal" text-decoration="none" transform="matrix(1 0 0 1 1861.97 2017)">4</text></g><g clip-path="url(#clip20)"><text fill="#1E1F24" fill-opacity="1" font-family="Calibri,Calibri_MSFontService,sans-serif" font-style="normal" font-variant="normal" font-weight="400" font-stretch="normal" font-size="55" text-anchor="start" direction="ltr" writing-mode="lr-tb" unicode-bidi="normal" text-decoration="none" transform="matrix(1 0 0 1 2070.14 2017)">5</text></g><g clip-path="url(#clip21)"><text fill="#1E1F24" fill-opacity="1" font-family="Calibri,Calibri_MSFontService,sans-serif" font-style="normal" font-variant="normal" font-weight="400" font-stretch="normal" font-size="55" text-anchor="start" direction="ltr" writing-mode="lr-tb" unicode-bidi="normal" text-decoration="none" transform="matrix(1 0 0 1 2278.3 2017)">6</text></g><g clip-path="url(#clip22)"><text fill="#1E1F24" fill-opacity="1" font-family="Calibri,Calibri_MSFontService,sans-serif" font-style="normal" font-variant="normal" font-weight="400" font-stretch="normal" font-size="55" text-anchor="start" direction="ltr" writing-mode="lr-tb" unicode-bidi="normal" text-decoration="none" transform="matrix(1 0 0 1 2486.47 2017)">7</text></g><g clip-path="url(#clip23)"><text fill="#1E1F24" fill-opacity="1" font-family="Calibri,Calibri_MSFontService,sans-serif" font-style="normal" font-variant="normal" font-weight="400" font-stretch="normal" font-size="55" text-anchor="start" direction="ltr" writing-mode="lr-tb" unicode-bidi="normal" text-decoration="none" transform="matrix(1 0 0 1 2694.63 2017)">8</text></g><g clip-path="url(#clip24)"><text fill="#1E1F24" fill-opacity="1" font-family="Calibri,Calibri_MSFontService,sans-serif" font-style="normal" font-variant="normal" font-weight="400" font-stretch="normal" font-size="55" text-anchor="start" direction="ltr" writing-mode="lr-tb" unicode-bidi="normal" text-decoration="none" transform="matrix(1 0 0 1 2902.79 2017)">9</text></g><g clip-path="url(#clip25)"><text fill="#1E1F24" fill-opacity="1" font-family="Calibri,Calibri_MSFontService,sans-serif" font-style="normal" font-variant="normal" font-weight="400" font-stretch="normal" font-size="55" text-anchor="start" direction="ltr" writing-mode="lr-tb" unicode-bidi="normal" text-decoration="none" transform="matrix(1 0 0 1 3097.06 2017)">10</text></g><g clip-path="url(#clip26)"><text fill="#1E1F24" fill-opacity="1" font-family="Calibri,Calibri_MSFontService,sans-serif" font-style="normal" font-variant="normal" font-weight="400" font-stretch="normal" font-size="85" text-anchor="start" direction="ltr" writing-mode="lr-tb" unicode-bidi="normal" text-decoration="none" transform="matrix(1 0 0 1 1696.15 728)">Pattern Matching Analysis</text></g><g clip-path="url(#clip27)"><path d="M1816 2108 1904 2108" stroke="#FEC321" stroke-width="10.3125" stroke-linecap="round" stroke-linejoin="round" stroke-miterlimit="10" stroke-opacity="1" fill="none" fill-rule="evenodd"/></g><g clip-path="url(#clip28)"><text fill="#1E1F24" fill-opacity="1" font-family="Calibri,Calibri_MSFontService,sans-serif" font-style="normal" font-variant="normal" font-weight="400" font-stretch="normal" font-size="55" text-anchor="start" direction="ltr" writing-mode="lr-tb" unicode-bidi="normal" text-decoration="none" transform="matrix(1 0 0 1 1913.41 2123)">Dataset 1</text></g><g clip-path="url(#clip29)"><path d="M2181 2108 2269 2108" stroke="#0FC5B3" stroke-width="10.3125" stroke-linecap="round" stroke-linejoin="round" stroke-miterlimit="10" stroke-opacity="1" fill="none" fill-rule="evenodd"/></g><g clip-path="url(#clip30)"><text fill="#1E1F24" fill-opacity="1" font-family="Calibri,Calibri_MSFontService,sans-serif" font-style="normal" font-variant="normal" font-weight="400" font-stretch="normal" font-size="55" text-anchor="start" direction="ltr" writing-mode="lr-tb" unicode-bidi="normal" text-decoration="none" transform="matrix(1 0 0 1 2278.38 2123)">Dataset 2</text></g></g></svg>